<?xml version="1.0" encoding="UTF-8"?><svg id="a" xmlns="http://www.w3.org/2000/svg" viewBox="0 0 32 32"><defs><style>.b{fill:#008bd5;}.c{fill:none;}.d{fill:#009e41;}</style></defs><rect class="c" x=".44" width="31.12" height="31.12"/><g><rect class="c" x=".44" width="31.12" height="23.05"/><rect class="d" x=".44" width="31.12" height="10.37"/><rect class="b" x=".44" y="12.68" width="31.12" height="10.37"/></g><g><polygon class="b" points=".44 26.25 .44 31.12 1.43 31.12 1.43 28.99 3.49 28.99 3.49 28.05 1.43 28.05 1.43 27.19 3.53 27.19 3.53 26.25 .44 26.25"/><path class="b" d="M6.41,30.42v-1.59c0-.52-.27-1.19-1.42-1.19-.45,0-.82,.1-1.06,.2v.86c.28-.18,.6-.27,.94-.27,.31,0,.62,.11,.62,.47v.02c-.15-.05-.34-.09-.55-.09-.78,0-1.35,.41-1.35,1.21s.64,1.09,1.16,1.09c.32,0,.6-.1,.78-.25,.02,.1,.04,.19,.08,.23h1.02c-.12-.1-.21-.3-.21-.7Zm-1.9-.47c0-.27,.23-.45,.56-.45,.17,0,.3,.04,.41,.09v.58c-.09,.08-.25,.18-.49,.18-.31,0-.48-.17-.48-.41Z"/><path class="b" d="M26.53,30.42v-1.59c0-.52-.27-1.19-1.41-1.19-.45,0-.82,.1-1.07,.2v.86c.28-.18,.6-.27,.94-.27,.31,0,.62,.11,.62,.47v.02c-.15-.05-.35-.09-.55-.09-.78,0-1.35,.41-1.35,1.21s.64,1.09,1.16,1.09c.32,0,.6-.1,.78-.25,.02,.1,.05,.19,.07,.23h1.02c-.12-.1-.21-.3-.21-.7Zm-1.89-.47c0-.27,.23-.45,.56-.45,.17,0,.3,.04,.41,.09v.58c-.09,.08-.25,.18-.49,.18-.3,0-.48-.17-.48-.41Z"/><path class="b" d="M10.52,27.68c-.4,0-.7,.1-.97,.39-.19-.24-.5-.39-.87-.39-.3,0-.59,.09-.85,.31v-.28h-.87v3.4h.93v-2.29c.11-.14,.27-.26,.49-.26,.28,0,.44,.19,.44,.54v2.01h.95v-2.32c.11-.14,.26-.23,.48-.23,.3,0,.44,.22,.44,.54v2.01h.95v-2.36c0-.64-.41-1.08-1.12-1.08Z"/><rect class="b" x="13.83" y="26.25" width=".93" height="4.87"/><polygon class="b" points="21.04 27.76 19.81 26.25 18.79 26.25 18.79 31.12 19.81 31.12 19.81 27.76 21.04 29.39 22.27 27.76 22.27 31.12 23.29 31.12 23.29 26.25 22.27 26.25 21.04 27.76"/><rect class="b" x="12.26" y="27.72" width=".93" height="3.4"/><path class="b" d="M12.73,26.17c-.33,0-.6,.27-.6,.6s.27,.6,.6,.6,.6-.27,.6-.6-.27-.6-.6-.6Z"/><path class="b" d="M27.93,28.07v-.36h-.89v3.4h.93v-2.14c.13-.17,.35-.33,.67-.33,.24,0,.42,.1,.52,.17v-1.02c-.11-.08-.3-.12-.45-.12-.26,0-.56,.1-.78,.4Z"/><path class="b" d="M31.16,30.25c-.3,0-.41-.23-.41-.48v-1.16h.79v-.89h-.79v-1.28l-.92,.39v.89h-.5v.89h.5v1.3c0,.71,.28,1.25,1.11,1.25,.25,0,.46-.04,.61-.1v-.94c-.07,.08-.2,.13-.4,.13Z"/><polygon class="b" points="15.89 32 16.93 32 18.5 27.72 17.48 27.72 16.83 29.55 16.13 27.72 15.07 27.72 16.35 30.8 15.89 32"/></g></svg>