<?xml version="1.0" encoding="utf-8"?>
<!-- Generator: Adobe Illustrator 27.2.0, SVG Export Plug-In . SVG Version: 6.00 Build 0)  -->
<svg version="1.1" id="レイヤー_1" xmlns="http://www.w3.org/2000/svg" xmlns:xlink="http://www.w3.org/1999/xlink" x="0px"
	 y="0px" viewBox="0 0 40 40" style="enable-background:new 0 0 40 40;" xml:space="preserve">
<style type="text/css">
	.st0{fill:#009844;}
	.st1{fill:#FFFFFF;}
	.st2{fill:#EF8200;}
	.st3{fill:#E50012;}
</style>
<g>
	<path class="st0" d="M20,39.7c10.9,0,19.7-8.8,19.7-19.8C39.8,9.1,30.9,0.3,20,0.3C9.1,0.3,0.2,9.1,0.2,20
		C0.2,30.9,9.1,39.7,20,39.7z"/>
	<path class="st1" d="M7.5,6.3c-0.6,0-0.7,0.3-0.9,0.5c-0.2,0.2-0.3,0.6-0.2,1l2.4,26.1c0.1,0.3,0.1,0.6,0.3,0.8
		c0.2,0.2,0.6,0.4,0.8,0.4h5.5v1.5H20h0.5h4v-1.5h5.6c0.3,0,0.6-0.1,0.8-0.4c0.2-0.2,0.3-0.5,0.3-0.8l2.4-26.1c0.1-0.4,0-0.8-0.2-1
		c-0.2-0.2-0.3-0.5-0.8-0.5h-6.1H7.5"/>
	<path class="st0" d="M13.5,27.1v-4.5H15l0,3.5h1v1L13.5,27.1z"/>
	<path class="st0" d="M11.7,24.4h1v0.9h-1v0.8h1v1l-2.5,0v-4.5h2.5v1h-1V24.4z"/>
	<path class="st0" d="M21.7,22.6h1.1L22,27.1h-2l-0.7-4.5h1.4l0.5,2.8L21.7,22.6z"/>
	<path class="st0" d="M28,23.9v3.3h-1.5v-4.5H28l0,0.3c0.3-0.2,0.8-0.5,1.1-0.5c1.1,0.1,1,1.2,1,1.4v3.3h-1.5v-3
		c0-0.3-0.1-0.5-0.3-0.5C28.1,23.6,28,23.7,28,23.9z"/>
	<path class="st0" d="M17.8,24.4h1v0.9h-1v0.8h1v1l-2.5,0v-4.5h2.5v1h-1V24.4z"/>
	<path class="st0" d="M24.7,24.4h1v0.9h-1v0.8h1v1l-2.5,0v-4.5h2.5v1h-1V24.4z"/>
	<g>
		<path class="st2" d="M23.6,12.5c-2.2,1.8-3.6,3.3-3.8,3.6h-9l0-5.8h16.5C27.1,10.3,24.9,11.6,23.6,12.5z"/>
	</g>
	<g>
		<path class="st3" d="M16.6,28c-0.4,3.7-0.3,6.8-0.4,7.7h7.5c0-2.2,0-5.2,0.2-7.7H16.6z"/>
		<path class="st3" d="M24.8,21.8c0.3-1,0.6-1.4,1.2-2.3c0.9-1.2,2.2-2.2,3.8-2.8v-6.5c-1,0.1-4.2,1.8-6.5,3.8
			c-2.5,2.2-4.1,4.1-5.3,7.7L24.8,21.8z"/>
	</g>
</g>
</svg>
