<?xml version="1.0" encoding="UTF-8"?><svg id="a" xmlns="http://www.w3.org/2000/svg" viewBox="0 0 49 32"><defs><style>.b{fill:#fff;}.c{fill:#003894;}</style></defs><path class="b" d="M4.8,18.42s-.03-.07-.07-.07H2.34c-1.29,0-2.34-1.05-2.34-2.34,0-.63,.21-1.26,.69-1.74L13.74,.69c.92-.92,2.4-.92,3.32,0l3.04,2.96h6.15C26.66,1.12,29.96,0,32.18,0c3.75,0,6.88,2.62,7.68,6.12,.01,.06,.03,.12,.04,.18,0,.03,.02,.06,.05,.07,2.69,1.48,4.58,4.25,4.84,7.48,0,.04,.02,.07,.05,.09l.06,.04c2.15,1.29,3.59,3.65,3.59,6.35,0,3.08-1.89,5.73-4.57,6.84-.03,.01-.04,.04-.04,.06v2.42c0,1.29-1.05,2.34-2.34,2.34H7.14c-1.29,0-2.34-1.05-2.34-2.34v-11.24Z"/><path class="c" d="M23.55,17.83c.83,0,1.51-.67,1.51-1.51v-5.48c0-.83-.67-1.51-1.51-1.51h0c-.83,0-1.51,.67-1.51,1.51v5.48c0,.83,.67,1.51,1.51,1.51h0Z"/><path class="c" d="M35.4,17.83c.83,0,1.51-.67,1.51-1.51v-5.48c0-.83-.67-1.51-1.51-1.51h0c-.83,0-1.51,.67-1.51,1.51v5.48c0,.83,.67,1.51,1.51,1.51h0Z"/><path class="c" d="M18.71,21.3s-.04-.08-.08-.08h-.39c-.7,0-1.26-.57-1.26-1.26h0c0-.7,.56-1.26,1.26-1.26h3.55c.7,0,1.26,.56,1.26,1.26h0c0,.7-.56,1.26-1.26,1.26h-.2s-.08,.04-.08,.08v4.48c0,.77-.62,1.39-1.39,1.39h0c-.77,0-1.39-.62-1.39-1.39v-4.48Z"/><path class="c" d="M31.47,9.33c-.8,0-1.45,.65-1.45,1.45v1.07h-.01s-.01,.02-.03,.02c-.01,0-.02,0-.03-.01l-1.3-1.88h0c-.26-.38-.7-.62-1.19-.62-.8,0-1.45,.65-1.45,1.45v5.55c0,.8,.65,1.45,1.45,1.45s1.45-.65,1.45-1.45l.02-1.09h0s.01-.03,.03-.03c0,0,.02,0,.02,.01l1.27,1.87c.26,.4,.71,.66,1.22,.66,.8,0,1.45-.65,1.45-1.45v-5.55c0-.8-.65-1.45-1.45-1.45Z"/><path class="c" d="M19.58,9.33c-.46,0-.88,.21-1.16,.54h0l-1.61,1.83s-.02,.04-.06,.04-.08-.04-.08-.04l-1.64-1.81c-.28-.34-.7-.56-1.17-.56-.83,0-1.5,.67-1.5,1.5v5.53c0,.8,.65,1.45,1.45,1.45s1.45-.65,1.45-1.45l.04-1.99s.02-.04,.04-.04c.01,0,.02,0,.03,.01l1.3,1.46s.03,.05,.08,.05,.08-.05,.08-.05l1.23-1.48s.02-.01,.03-.01c.02,0,.04,.02,.04,.04h0l.04,2.01c0,.8,.65,1.45,1.45,1.45s1.45-.65,1.45-1.45v-5.53c0-.83-.67-1.5-1.5-1.5Z"/><path class="c" d="M35.58,18.7h-2.85c-.48,0-.87,.39-.87,.87v6.15c0,.81,.66,1.46,1.46,1.46s1.46-.65,1.46-1.46v-1.43s.02-.04,.04-.04h.66c2.04,0,3.01-1.38,3.01-2.75,0-1.55-1.31-2.8-2.92-2.8Zm0,3.46h-.75s-.04-.02-.04-.04v-1.23s.02-.04,.04-.04h.75c.36,0,.66,.3,.66,.66s-.3,.66-.66,.66Z"/><path class="c" d="M41.48,16.5h0c1.99,.19,3.55,1.88,3.55,3.9s-1.5,3.62-3.44,3.86c-.67,.08-1.2,.63-1.2,1.32v2.82c0,.06-.05,.11-.11,.11H8.4c-.06,0-.11-.05-.11-.11v-12.33c0-.68-.55-1.23-1.24-1.23h-1.9s-.02,0-.03-.01c-.02-.02-.02-.05,0-.07L15.38,4.14s.05-.02,.07,0l3.11,2.99c.43,.43,1.22,.47,1.69,0,.47-.47,.46-1.22,0-1.69l-3.99-3.88c-.47-.47-1.22-.47-1.69,0L1.39,15.22c-.18,.21-.29,.49-.29,.79,0,.68,.58,1.21,1.23,1.21h3.46c.06,0,.11,.05,.11,.11v12.33c0,.68,.55,1.23,1.23,1.23H41.55c.68,0,1.23-.55,1.23-1.23v-3.16s.02-.06,.05-.07c2.62-.75,4.54-3.17,4.54-6.03,0-2.46-1.42-4.59-3.48-5.61-.04-.02-.08-.04-.12-.06-.04-.02-.07-.07-.07-.12-.03-3.27-1.95-6.08-4.72-7.4-.04-.02-.07-.07-.07-.12-.42-3.34-3.27-5.93-6.73-5.93-1.51,0-2.91,.49-4.03,1.33-.53,.39-.67,1.12-.3,1.66,.38,.54,1.14,.7,1.67,.3,.74-.56,1.66-.9,2.66-.9,1.72,0,3.21,.99,3.93,2.43,.3,.59,.56,1.43,.56,2.84,0,.05,.04,.1,.08,.11,.08,.02,.15,.04,.23,.06,2.2,.6,3.88,2.46,4.25,4.74,.05,.31,.15,1.14,.15,2.67,0,.05,.04,.1,.09,.1Z"/><path class="c" d="M16.87,24.51c0,1.58-1.28,2.86-2.86,2.86-1.1,0-1.94-.44-2.59-1.13-.2-.21-.31-.5-.31-.82,0-.67,.54-1.22,1.22-1.22,.27,0,.6,.13,.77,.22,.09,.05,.52,.34,.7,.34,.13,0,.24-.11,.24-.24,0-.17-.24-.32-.34-.38-1.22-.61-2.35-1.44-2.35-2.96s1.09-2.72,2.82-2.72c.93,0,1.74,.42,2.33,1.05,.18,.19,.28,.44,.28,.73,0,.59-.48,1.08-1.08,1.08-.41,0-.95-.34-1-.36-.14-.08-.2-.15-.35-.15s-.26,.11-.26,.26c0,.19,.23,.35,.76,.61,1.48,.72,2.03,1.77,2.03,2.83"/><path class="c" d="M26.87,18.49c-2.41,0-4.37,1.98-4.37,4.43s1.96,4.43,4.37,4.43,4.37-1.98,4.37-4.43-1.96-4.43-4.37-4.43Zm0,6.15c-.95,0-1.72-.77-1.72-1.72s.77-1.72,1.72-1.72,1.72,.77,1.72,1.72-.77,1.72-1.72,1.72Z"/></svg>