<?xml version="1.0" encoding="UTF-8"?><svg id="a" xmlns="http://www.w3.org/2000/svg" viewBox="0 0 204 32"><defs><style>.b{fill:#0e62a9;fill-rule:evenodd;}</style></defs><path class="b" d="M193.82,19.73V6.47l-.17-.17h-.17l-2.65-.17h-.83c0-.17-.17-.17-.33-.33,0,0-.17-.17-.17-.33-.17-.17-.17-.33-.17-.66V1.16c0-.17,0-.33,.17-.5q0-.17,.17-.33c.17,0,.33-.17,.33-.17,.17-.17,.33-.17,.5-.17h11.61s.17,0,.17,.17q.17,0,.33,.17c.17,0,.33,.17,.33,.33s.17,.33,.17,.66v3.65c0,.17,0,.33-.17,.5q0,.17-.17,.33l-.17,.17c-.17,.17-.33,.17-.33,.17h-.5l-2.32,.17h-.33c-.17,0-.17,.17-.33,.17V25.53q.17,.17,.33,.33h3.15c0,.17,.17,.17,.33,.17,0,.17,.17,.17,.17,.33,.17,0,.17,.17,.17,.17l.17,.17v4.15c0,.17-.17,.33-.17,.5-.17,.17-.17,.33-.33,.33,0,.17-.17,.17-.33,.17-.17,.17-.33,.17-.33,.17h-11.44c-.17,0-.33,0-.33-.17-.17,0-.33,0-.5-.17,0-.17-.17-.17-.17-.33-.17-.17-.17-.5-.17-.66v-3.98c0-.17,.17-.33,.17-.33,0-.17,.17-.17,.17-.17q.17-.17,.33-.17c.17-.17,.33-.17,.5-.17h2.32s.17,0,.17-.17h0v-.17c0-.17-.17-.17-.33-.33l-13.93-12.6h-.33v12.77s0,.17,.17,.33h.17q0,.17,.17,.17h3.15c.17,0,.33,0,.5,.17,0,0,.17,0,.17,.17,.17,0,.17,.17,.17,.17q.17,.17,.17,.33t.17,.33l-.17,3.81v.5q-.17,.17-.33,.33s-.17,.17-.33,.17-.17,.17-.33,.17h-11.61c-.17,0-.33-.17-.5-.17-.17-.17-.33-.17-.33-.33-.17,0-.17-.17-.33-.33l.17-4.64s0-.17,.17-.17c0-.17,.17-.33,.17-.33,.17,0,.33-.17,.5-.17h.33l2.65-.17h.17c0-.17,.17-.33,.17-.5V6.8c0-.17-.17-.33-.17-.33q-.17-.17-.33-.17h-2.82q-.17-.17-.33-.17c0-.17-.17-.17-.17-.17-.17-.17-.33-.33-.33-.5V.66s0-.17,.17-.17c0-.17,.17-.17,.33-.33h.5s0-.17,.17-.17h10.94c.17,0,.33,.17,.66,.17h.17q.17,0,.17,.17c.17,0,.33,.17,.33,.33,.17,0,.17,.17,.17,.33V5.47c0,.17-.17,.17-.17,.33s-.17,.17-.17,.17q-.17,.17-.33,.17c0,.17-.17,.17-.33,.17h-2.82l-.17,.17,14.76,13.26h0Z"/><path class="b" d="M144.91,32c-.33,0-.66-.17-.83-.17-.33,0-.5-.17-.66-.33-.33,0-.5-.17-.66-.17,0-.17-.17-.17-.17-.33-.17,0-.33-.17-.5-.33-.17-.17-.33-.33-.5-.66-.17-.17-.17-.5-.33-.66,0-.33-.17-.5-.17-.83s0-.66-.17-1l.17-23.71c0-.33,0-.99,.17-1.16,0-.17,.17-.5,.33-.83,.17-.33,.33-.5,.66-.66,.17-.17,.33-.33,.5-.5s.5-.33,.66-.5c.33,0,.5-.17,.66-.17h18.24c.33,0,.66,0,.83,.17,.33,0,.5,0,.66,.17,.33,.17,.5,.33,.83,.5,.17,.17,.5,.5,.66,.5v.17c.17,.17,.17,.33,.33,.33,.17,.33,.33,.5,.33,.83,.17,.17,.17,.5,.33,.66V27.36c0,.5,0,1-.17,1.33,0,.17-.17,.5-.17,.83-.17,.17-.33,.5-.5,.66,0,.17-.17,.17-.17,.33h0l-.5,.5s-.17,.17-.33,.17c-.17,.17-.5,.33-.66,.5-.33,0-.5,.17-.66,.17-.33,0-.83,.17-1.33,.17h-16.91Zm15.09-6.13c.17-.17,.5-.17,.66-.17,.17-.17,.33-.33,.5-.33q0-.17,.17-.33c0-.17,.17-.33,.17-.33V7.13c-.17-.17-.17-.33-.33-.33,0-.17-.17-.33-.33-.33,0,0-.17-.17-.33-.17s-.33-.17-.33-.17h-12.6c-.17,0-.66,.17-.83,.17,0,0-.17,0-.33,.17l-.17,.17c-.17,.17-.33,.33-.33,.5-.17,0-.17,.17-.17,.33V24.21c0,.17,.17,.5,.17,.66s.17,.33,.33,.5l.17,.17c.17,0,.33,.17,.5,.17s.5,.17,.66,.17h12.44Z"/><path class="b" d="M132.48,12.93c.33,0,.5,0,.66,.17,.33,0,.99,.17,.99,.17,.33,.17,.5,.33,.83,.5,.17,.17,.33,.33,.66,.66,0,0,.17,.17,.33,.33,0,.17,.17,.33,.17,.5,.17,.33,.33,.5,.33,.66,0,.33,.17,.5,.17,.66v11.61c0,.17-.17,.5-.17,.66,0,.33-.17,.66-.33,.83,0,.17-.17,.33-.33,.66-.17,.17-.33,.33-.5,.66-.17,.17-.33,.17-.5,.33-.17,.17-.5,.33-.66,.33-.33,.17-.66,.33-.99,.33h-18.74c-.33-.17-.5-.17-.83-.33-.17-.17-.5-.33-.66-.5-.33-.17-.5-.33-.66-.5l-.33-.33c0-.17-.33-.66-.33-.99-.17-.17-.17-.33-.17-.5-.17-.33-.17-.83-.17-1.16v-6.63c.17-.17,.17-.33,.17-.33,0-.17,.17-.17,.17-.33,.17,0,.17-.17,.33-.17,0-.17,.17-.17,.33-.33h2.49c.17,.17,.33,.17,.5,.17s.33,.17,.33,.17l.33,.33c.17,.17,.17,.33,.17,.5v2.98c.17,.17,.17,.33,.17,.5s.17,.33,.17,.5c.17,0,.17,.17,.33,.33,0,0,.17,0,.33,.17h.33s12.77,.17,12.93,.17c.33,0,.5-.17,.66-.17s.17-.17,.33-.17c0-.17,.17-.17,.17-.33,.17,0,.17-.17,.17-.33q.17-.17,.17-.33v-5.47c0-.17,0-.33-.17-.5,0,0,0-.17-.17-.17,0-.17-.33-.5-.5-.5h-15.59c-.33,0-.83,0-1.16-.17-.17,0-.5-.17-.66-.17-.17-.17-.33-.17-.5-.33-.17,0-.33-.17-.5-.33s-.17-.33-.33-.33c-.17-.17-.33-.33-.33-.5-.17-.17-.33-.5-.33-.66-.17-.33-.17-.5-.33-.83V4.15c0-.33,.17-.66,.17-.99,0-.17,.17-.5,.17-.66,.17-.17,.33-.5,.5-.66,0-.17,.17-.33,.17-.33,.17-.17,.5-.5,.66-.66,.17-.17,.83-.33,.99-.5,.17,0,.33-.17,.5-.33l18.4,.17c.17,0,.5,0,.83,.17,.17,0,.33,0,.66,.17,.17,0,.33,.17,.5,.33,.17,.17,.5,.33,.66,.5,.17,.17,.33,.33,.5,.66,0,0,.17,.17,.17,.33,.17,.33,.33,.66,.33,.99,.17,.33,.17,.66,.17,.99v5.64c-.17,.17-.17,.33-.33,.5-.17,.17-.33,.33-.5,.33s-.33,.17-.5,.17h-2.16c-.17,0-.33-.17-.5-.17,0,0-.17-.17-.33-.17q0-.17-.17-.17c0-.17-.17-.33-.17-.33,0-.17-.17-.5-.17-.66v-1.66c0-.33,0-.5-.17-.66,0-.17-.17-.33-.17-.33-.17-.17-.33-.17-.5-.33-.17,0-.5,0-.66-.17h-12.93c-.17,.17-.33,.17-.5,.17-.17,.17-.33,.17-.5,.33-.17,.17-.17,.33-.17,.5-.17,.17-.17,.33-.17,.5v4.15c.17,0,.17,.17,.17,.33,0,0,.17,.17,.17,.33,.17,0,.33,.17,.33,.17,.17,0,.17,.17,.33,.17h15.42Z"/><path class="b" d="M62.18,6.96s0-.17-.17-.33l-.33-.33h-.33q-.17-.17-.33-.17h-2.98q-.17-.17-.33-.17c0-.17-.17-.17-.17-.33l-.17-.17V.66c.17,0,.17-.17,.33-.33,0,0,.17,0,.17-.17h12.44q.17,.17,.33,.33h0c.17,.17,.17,.33,.33,.5V5.47s-.17,.17-.17,.33l-.17,.17c-.17,0-.17,.17-.33,.17,0,0-.17,.17-.33,.17h-2.65v.33l5.97,12.93c0,.17,.17,.33,.17,.5h.17l.17-.17,6.13-13.1v-.17c0-.17,.17-.17,0-.33l-.17-.17h-2.65c-.17,0-.33,0-.33-.17h-.17l-.17-.17q-.17-.17-.17-.33c-.17-.17-.17-.33-.17-.33V1.16c0-.17,.17-.33,.17-.33,0-.17,.17-.17,.17-.33q.17-.17,.33-.33h.33c.17,0,.33-.17,.5-.17l11.11,.17c.17,0,.33,0,.5,.17h.17l.17,.17c.17,.17,.17,.33,.17,.33,.17,.17,.17,.5,.17,.66v3.65c0,.17-.17,.33-.17,.5l-.17,.17c-.17,.17-.17,.33-.33,.33s-.33,.17-.5,.17h-2.65q-.17,0-.17,.17v.17c0,.17,.17,.33,.17,.5l5.97,12.77s0,.17,.17,.17h.17c0-.17,.17-.17,.17-.33l6.13-13.1v-.33l-.17-.17h-2.82c0-.17-.17-.17-.33-.33l-.17-.17q-.17-.17-.17-.33V1.16c0-.17,0-.33,.17-.33,0-.17,.17-.33,.17-.5,.17,0,.33-.17,.33-.17h12.1c.17,0,.33,.17,.33,.17,.17,.17,.17,.33,.33,.33q0,.17,.17,.33v3.98c0,.17,0,.33-.17,.5,0,.17-.17,.17-.17,.33l-.17,.17h-.17c-.17,.17-.33,.17-.5,.17h-2.82c-.17,0-.33,0-.33,.17-.17,0-.17,.17-.33,.33l-8.62,18.4c-.17,.17-.17,.33-.33,.5q0,.17,.17,.17v.17h2.49c.17,0,.33,0,.5,.17,.17,0,.33,.17,.33,.17,.17,.17,.33,.33,.33,.5,.17,0,.17,.17,.17,.33v3.81c0,.17-.17,.33-.17,.5,0,0-.17,.17-.17,.33-.17,0-.33,.17-.33,.17-.17,.17-.33,.17-.5,.17h-11.44c-.17,0-.33,0-.5-.17q-.17,0-.33-.17l-.17-.17c0-.17-.17-.33-.17-.5v-3.98c0-.17,0-.33,.17-.5,0,0,.17-.17,.17-.33,0,0,.17,0,.17-.17,.17,0,.33-.17,.5-.17h2.98q.17,0,.17-.17v-.33l-6.3-13.43v-.17q-.17,0-.17,.17l-.17,.17-6.3,13.43v.17s0,.17,.17,.17h2.98c.17,0,.33,.17,.5,.33l.17,.17c0,.17,.17,.33,.17,.5v3.98c0,.17,0,.33-.17,.5,0,0,0,.17-.17,.33-.17,0-.17,.17-.33,.17-.17,.17-.33,.17-.5,.17h-11.27c-.17,0-.33,0-.5-.17q-.17,0-.33-.17s-.17-.17-.17-.33c-.17,0-.17-.17-.17-.33v-4.15s0-.17,.17-.33c0-.17,.17-.33,.17-.33q.17-.17,.33-.17,.17-.17,.33-.17h2.65q.17-.17,.17-.33v-.17L62.18,6.96h0Z"/><path class="b" d="M37.64,25.2v.33l.17,.17h2.32c.33,0,.5,0,.66,.17h.33c0,.17,.17,.17,.33,.33,0,.17,.17,.17,.17,.33v4.31c0,.17,0,.33-.17,.5v.17c-.17,0-.17,.17-.33,.17,0,.17-.17,.17-.33,.17q-.17,.17-.33,.17h-11.61c-.17-.17-.33-.17-.5-.33-.17,0-.17-.17-.17-.17-.17-.17-.17-.33-.17-.33v-4.81q.17-.17,.33-.33s.17-.17,.33-.17c.17-.17,.33-.17,.33-.17h2.32c.17,0,.17-.17,.17-.17,.17,0,.33-.17,.66-.33L42.45,6.3h-.33c-.17-.17-.33-.17-.5-.17h-1.99c-.17,0-.33-.17-.5-.17-.17-.17-.17-.33-.33-.33V.83c0-.17,.17-.17,.17-.33,0,0,.17-.17,.33-.17,0-.17,.17-.17,.17-.17,.17-.17,.33-.17,.33-.17h11.44c.33,0,.5,.17,.66,.17s.17,.17,.33,.33c0,0,.17,.17,.17,.33V5.31q0,.17-.17,.33c0,.17-.17,.17-.17,.33-.17,.17-.33,.17-.5,.17h-2.65c-.17,0-.17,.17-.17,.17h-.17v.33l10.45,19.07h2.49c.17,0,.33,0,.5,.17h.33q.17,.17,.33,.33c0,.17,.17,.17,.17,.33s.17,.33,.17,.5v3.65c0,.17-.17,.33-.17,.5s-.17,.17-.17,.33q-.17,.17-.33,.33c-.17,0-.33,.17-.33,.17h-11.77s-.17,0-.33-.17c0,0-.17,0-.33-.17l-.17-.17-.17-.17c0-.17,0-.33-.17-.66l.17-3.65c0-.33,0-.5,.17-.66v-.17c.17-.17,.33-.17,.33-.33q.17,0,.33-.17h2.98l.17-.17v-.17l-1.49-2.82c-.17-.17-.33-.33-.33-.33-.17-.17-.33-.17-.33-.17h-11.27c-.17,0-.17,.17-.33,.17s-.17,.17-.33,.33l-1.49,2.65h0Zm4.31-8.29c-.17,.17,0,.33,0,.5,0,0,.17,0,.17,.17h6.3c.17,0,.33-.17,.5-.17l.17-.17v-.33l-3.32-5.8-.17-.17h-.17c-.17,0-.33,.17-.33,.17l-3.15,5.8h0Z"/><path class="b" d="M13.6,4.81v.66c-.17,.17-.33,.33-.5,.5-.17,0-.33,.17-.5,.17h-2.98c-.17,.17-.33,.17-.33,.17q0,.17-.17,.33V25.2c0,.17,.17,.17,.17,.33,0,0,0,.17,.17,.17h10.78c.17,0,.17-.17,.33-.17v-.33c.17-.66,0-4.48,0-4.97,0-.17,.17-.17,.17-.33,0,0,.17-.17,.17-.33,.17,0,.17-.17,.33-.17,.17-.17,.33-.17,.5-.17h2.49c.17,0,.33,0,.33,.17h.17c.17,.17,.33,.17,.33,.33s.17,.17,.17,.33v11.11c-.17,0-.17,.17-.17,.17,0,.17-.17,.33-.33,.33,0,.17-.17,.17-.33,.17q-.17,.17-.33,.17H1.33c-.17-.17-.33-.17-.5-.17s-.17-.17-.33-.17l-.17-.17s-.17-.17-.17-.33c-.17-.17-.17-.33-.17-.66v-3.65c0-.17,.17-.17,.17-.33s0-.17,.17-.17c0-.17,.17-.33,.17-.33,.17-.17,.33-.17,.5-.17H3.65q.17,0,.33-.17l.17-.17q.17-.17,.17-.33V6.47l-.17-.17c-.17,0-.33-.17-.33-.17H1.16c-.17,0-.33,0-.5-.17-.17,0-.17-.17-.33-.17,0-.17-.17-.33-.17-.33,0-.17-.17-.33-.17-.5V1.16c0-.17,0-.33,.17-.33C.17,.66,.17,.5,.33,.5c0-.17,.17-.17,.33-.33h.17q.17-.17,.33-.17H12.6c.17,.17,.33,.17,.33,.17q.17,0,.33,.17s.17,.17,.17,.33q.17,.17,.17,.33v3.81h0Z"/></svg>