<svg xmlns="http://www.w3.org/2000/svg" viewBox="0 0 229.38 59.27"><defs><style>.cls-1{fill:#040000;}</style></defs><title>logo</title><g id="レイヤー_2" data-name="レイヤー 2"><g id="レイヤー_1-2" data-name="レイヤー 1"><path class="cls-1" d="M227.62,27.21c-2.3-.52-4.61.12-6.94-.32-.93-.17-1-1.5-.66-2.21,2.29-4.25,5.79-7.15,8.66-11.12.65-.91-.6-2-1.73-1.87-4.34.46-7.77,3.45-11.88,4.69-.71-1.37-1.55-3.08-3.4-3-3.79.12-7.57,2.79-11,1.21-.93-.43-2.35-1-3.16-.4-2.43,1.7-2.12,5-2.46,7.78,0,.39.49.8.81,1.24s-.44.48-.38.67c.83,2.36.54,5.4,2.7,6.89,1.48,1,3.33,0,5-.22.59-.06,1,.66.88,1.32-.09.48-.43,1.08-.91,1.15-.86.12-1.49.92-2.15.9a6.9,6.9,0,0,0-1.21,0c-1.23.23-.62,1.19,0,1.56,1.09.63,2.22-.08,3.32,0,.86.11.82,2.07,0,2.65a10,10,0,0,1-1.68.92,2.9,2.9,0,0,1-1.9.36c-.1.82.42,1.59.25,2.42a7.31,7.31,0,0,0,2.39-.09c3.25-1.09,6.67-1,9.65-2.92a1.37,1.37,0,0,0,.21-1.75c-.78-1-2.24-.77-3.54-.77-.94,0-.47-1.86.3-2.06,1.74-.47,3.92-1.33,3.26-3.28-.5-1.53-1.87-.56-3.07-.6-.45,0-.62-.64-.45-1.1.06-.21.28-.45.45-.46,1.33-.05,3,0,3.52-1.3.41-1.05.42-2.33,1-3.26,2.06-3.31,5.62-4.47,8.86-6.59.32-.22.43.3.69.45-1.25,1.74-2.51,4.31-4.61,4.41-.38,0-1.59-1-1.78-.25-.51,1.94,1.2,3.63,1.19,5.53,0,.51-.87.77-1.37.85-1.26.21-2.84.23-3.4,1.2s.2,2.28,1.43,1.7,2.92-.57,3.14-.19a11.11,11.11,0,0,1,.42,8.5,3.08,3.08,0,0,1-2.31,1.84c-1.83.37-3.45,1.19-5.31,1.11,0,.16,0,.42,0,.44.66.18,1.53-.2,1.9.53.12.22,0,.37-.21.49,3-.66,7.14.4,8.51-2.75,1-2.39-1-5.12-.15-7.62.24-.74,1.26-.72,2-1.07.92-.42,1.34-1.54,2.06-1.95,1.4-.77,3.52-.2,4.6-1.51C229.87,28.54,228.46,27.41,227.62,27.21ZM203,20.07c.09,0,.37.24.41.44.25,1.12.24,2.77-1.39,2.37-.21-.05-.44-.29-.44-.45A2.4,2.4,0,0,1,203,20.07Zm-.73,8.11a.75.75,0,0,1-.46-1.11c.29-.45,1-.85,1.35-.65C204.12,27,203.5,28.43,202.25,28.18Zm10.29-10.41a5.49,5.49,0,0,0-.7,2.75c-.23,1.5-.08,3.05-.28,4.56a1.72,1.72,0,0,1-2.29,1.4c-.79-.21-.65-1.24-.41-1.83s1-.91,1.51-1.35c.29-.26.09-1,.09-1.59-2.27.11-2.09-2.25-1.9-3.87.05-.36.5-.14.65-.29a2.84,2.84,0,0,1,2.68-.86C212.33,16.83,212.78,17.43,212.54,17.77Zm10,13.84a1.91,1.91,0,0,1-2.35.91c-.61-.24-.33-1.11-.17-1.57.21-.63,1-.13,1.59-.28S222.88,31,222.53,31.61Z"/><path class="cls-1" d="M191,13.39a32,32,0,0,0-7.75.13c-.66.08-.71-1.57-1.68-1.67-1.28-.11-1.41,1.59-2.25,1.91-1.64.66-3.68.42-5.49.43-1.44,0,.24-2.14-.42-2.69-1.87-1.58-2.49,2-4.05,2.74a6.2,6.2,0,0,1-2.8.71c-1.63-.07-3.17.56-4.84.56-.7,0-1.26.82-2,1-1.48.44-3.33.17-4.15,1.43-.42.62-.65,2.36.09,2.49,2.68.51,5.37.05,8.19-.44,1.92-.33,3.7.31,5.56.39.62,0,1,1.18.64,1.71-.6.77-1.74,1-2.46,1.64a11.23,11.23,0,0,0-3.49,6.67,5.66,5.66,0,0,0,5.58,1c.1-.05.35.25.19.4-.72.71-1.81.78-2.55,1.35A28.22,28.22,0,0,0,161.45,40c-.7,1,1.26,2.83,2.38,2.37s2-2,3-2.25c.8-.16.82,1.55,1.46,2.33a2.38,2.38,0,0,0,2.58.46c1.78-.46,4.26-.44,4.87-1.95.4-1,.6-2.16,1.7-2.19,1.93,0,3.56,1.4,5.51,2,.21.06.05.86-.45,1-1.27.41-2.6-.73-3.86,0,.58.87,1.68.73,2.27,1.17,1.82,1.4,4.16,2.16,6.14.91,1.75-1.14,2.48-3.17,3.13-5.18.14-.45.55-1.11.64-1.54a5.28,5.28,0,0,0-1.23-4.61c-1.32-1.36-3.7-.94-5.62-1-2.81-.1-5.66.61-8.48-.16,3-.72,6.66.16,8.71-1.94.94-.95.9-3,1.1-4.62a2.41,2.41,0,0,0-1.61-2.56c-1.45-.46-3.39.32-4.4-.73a1.92,1.92,0,0,1,.64-2.1c2-.9,4-1.38,6-2.18,1.84-.71,3.94-.64,5.66-1.75C192.39,15.05,191.82,13.49,191,13.39ZM171.94,21c.47-1,1.65-.79,2.61-.73.76,0,2-.28,2,.44-.17,2-2.85,1.15-4.42,1.15C171.72,21.87,171.82,21.26,171.94,21Zm8.67,13.56c1.17-.86,2.55-.64,3.85-.4.62.13.86,1,.65,1.55-.6,1.5-1,3.15-2.08,4.39-.3-.28-.32-.81-.74-.93-1.32-.4-2.74-.84-3.27-2S179.72,35.21,180.61,34.57Zm-2.45-.44c.62.11.64.85.45,1.37a1.39,1.39,0,0,1-.94.63c-.84.22-1.46-.89-2.4-.86a6.79,6.79,0,0,1-.23,4.5c-.63,1.41-3.8,2.5-4.73.77-.59-1.07.45-2.16.74-3.3s.8-2.45,1.84-2.77A11.27,11.27,0,0,1,178.16,34.13Zm-.5-6.22a13.15,13.15,0,0,1-7.45.69c-.8-.18-.51-1.3.24-1.47,2.18-.51,4.52,0,6.41-1,.55-.29-.16-1.09-.88-1.15-1.68-.16-3.35.49-5.06.3-.6-.07-.6-.83,0-1.12,1.55-.74,3.21-.55,4.85-.73,1.36-.13,3.54-.34,3.4,1.19C179.06,25.73,179,27.42,177.66,27.91Z"/><path class="cls-1" d="M89.58,25.58A3.46,3.46,0,0,0,92,24.71c.76-.73.52-1.89-.67-3.19a1.06,1.06,0,0,0-.81-.29l-.35,0a2.26,2.26,0,0,1-.52,0A2.13,2.13,0,0,0,87,22.91a2.31,2.31,0,0,0,.5,1.84A2.84,2.84,0,0,0,89.58,25.58Z"/><path class="cls-1" d="M93,35.74c-1.92-.34-3.82-.54-5.66-.73a56.55,56.55,0,0,1-7.41-1.11,1.63,1.63,0,0,1-1.1-.77c-.84-1.4-.11-4.23.37-6.11l.08-.31c.2-.77.94-1,2.14-1.38a11,11,0,0,0,1.46-.51.84.84,0,0,0,.37-.54A2.17,2.17,0,0,0,83,22.72a3.41,3.41,0,0,0-1.94-1c-.56-.15-1-.27-1-.46-.18-1.61.52-3.1,1.26-4.67a11.83,11.83,0,0,0,1.48-4.78.43.43,0,0,0-.17-.4.4.4,0,0,0-.42,0l-.12-.11A1,1,0,0,0,81,11,3.64,3.64,0,0,0,79,12.86a24.4,24.4,0,0,0-1,3.91c-.61,2.93-1.19,5.7-3.76,6.72a12.31,12.31,0,0,1-4.9.54l-1.19,0a13.06,13.06,0,0,0-3.17.31A1.6,1.6,0,0,0,63.69,26a2.45,2.45,0,0,0,1.55,2.4,12.69,12.69,0,0,0,6.59,0c.25-.07.54-.18.83-.29l1.08-.4a10.72,10.72,0,0,1,1,7.75,6.38,6.38,0,0,1-2.43,2.85c-1.32,1.06-2.69,2.16-3,4.08a.49.49,0,0,0,.09.35.46.46,0,0,0,.32.18,10.06,10.06,0,0,0,1.44.1c3.7,0,6.42-1.84,7.32-4.94a23.75,23.75,0,0,1,5.27-.53,66.9,66.9,0,0,1,6.75.45c.2,0,.45.07.51.25a1.66,1.66,0,0,1-.8,1.35h-.44a.86.86,0,0,0-.61.21c-1,1-1.84,1.67-3,1.4a.48.48,0,0,0-.4.1.47.47,0,0,0-.18.37v.79a.49.49,0,0,0,.59.47c.47-.12,1-.22,1.43-.32,2.49-.53,5.07-1.07,6.66-3.58a2.28,2.28,0,0,0,.14-2.11A2,2,0,0,0,93,35.74ZM75.76,38.69c0,.07.06.23,0,.5s-.42.35-.7.59c-.53.47-1.52,1.35-2,1.35h0a1.06,1.06,0,0,1-.51-.53c0-.05,0-.11,0-.14A9.89,9.89,0,0,1,74,39.29c.47-.33.8-.56,1-.74C75.44,38.52,75.7,38.61,75.76,38.69Z"/><path class="cls-1" d="M105.12,41.28a1.54,1.54,0,0,0-1.16.46,1.63,1.63,0,0,0-.28,1.78,1.8,1.8,0,0,0,1.67,1.09,2,2,0,0,0,.62-.1,1.84,1.84,0,0,0,1.11-.87,1.2,1.2,0,0,0,0-1A2.17,2.17,0,0,0,105.12,41.28Z"/><path class="cls-1" d="M125.68,40.3a3.19,3.19,0,0,0-1.72-.45,2.39,2.39,0,0,0-1.62.53,3,3,0,0,0-.79,2.16,1.87,1.87,0,0,0,.79,1.43,3.2,3.2,0,0,0,1.85.75h.06a2.52,2.52,0,0,0,2.5-1.74A2.44,2.44,0,0,0,125.68,40.3Zm-1.49,3.93Z"/><path class="cls-1" d="M130.18,29.72c-1.72.11-3.47.28-5.15.44-2.88.28-5.85.56-8.78.56a37.17,37.17,0,0,1-3.92-.19.76.76,0,0,1-.35-.36c-.17-3.28,2.39-5.91,4.83-7a27.35,27.35,0,0,1,3.24-1.08,24,24,0,0,0,4-1.39.52.52,0,0,0,.25-.29.57.57,0,0,0,0-.38,7,7,0,0,0-.84-1.11c-.79-.93-.92-1.2-.37-1.78A6.28,6.28,0,0,1,124.73,16a6.54,6.54,0,0,0,2.4-1.78.91.91,0,0,0,.08-1,1,1,0,0,0-.9-.54c-2,.28-4,.75-5.88,1.21a38.77,38.77,0,0,1-8.82,1.4H111c-.56,0-.84-1.2-1.1-2.25a10.26,10.26,0,0,0-.54-1.8,3.7,3.7,0,0,1-.28-.86,1.48,1.48,0,0,0-.4-.76,1.12,1.12,0,0,0-.73-.23.8.8,0,0,0-.74.34c-1.85,3.12-1.57,7.89.68,11.34a1.09,1.09,0,0,1,.12.74.31.31,0,0,1-.2.19,36.51,36.51,0,0,1-8,1.52c-1,.09-.92,1.09-.87,1.57a2.88,2.88,0,0,1,0,.5.47.47,0,0,0,.11.38.46.46,0,0,0,.36.17c.36,0,.72,0,1.09.06s.78.06,1.16.06a3.53,3.53,0,0,0,1.73-.36c1.43-.78,3.41-1,3.95-.48a1.22,1.22,0,0,1,.36,1.13c-.23,1.58-2.46,3.57-3.91,4.35a4,4,0,0,1-.69.26c-.72.23-1.71.55-1.92,1.64a1,1,0,0,0,.46.85c.07.07.18.16.19.12,0,1.4-.76,2.35-1.66,3.45-.35.43-.7.86-1,1.33A1.26,1.26,0,0,0,99,39.93a2.12,2.12,0,0,0,1.8.85,1.51,1.51,0,0,0,.39,0c2-.6,3.12-2.33,4.18-4s2-3.11,3.65-3.68a3.18,3.18,0,0,1,1-.16,3.06,3.06,0,0,1,2.86,1.62,1.94,1.94,0,0,1,.13,1.55c-.32.66-1.37,1-2.49,1.32a10.3,10.3,0,0,0-2.39,1,.47.47,0,0,0-.21.44.45.45,0,0,0,.27.4,5,5,0,0,0,2.43.2c.3,0,.6-.06.88-.06a1.47,1.47,0,0,1,1.11.36c.34.34.28.88.15,1.73a4.49,4.49,0,0,0,0,1.93,1.66,1.66,0,0,0,1.66,1.33,2.47,2.47,0,0,0,1.86-.88,12.77,12.77,0,0,0,1.82-5.36c.09-.49.55-.75,1.29-1.14a4.5,4.5,0,0,0,1.83-1.44.48.48,0,0,0,0-.49.56.56,0,0,0-.47-.25h-.57c-.61,0-2.47,0-2.8-.49,0,0-.1-.16,0-.48.56-1.37,1.92-2.07,4.07-2.07a13.94,13.94,0,0,1,3,.37,10.48,10.48,0,0,0,2.32.27c2.75,0,3.63-1.3,3.89-2.41a.47.47,0,0,0-.1-.41A.42.42,0,0,0,130.18,29.72Zm-14.46-9.63a1,1,0,0,0-1.13-.14,2.09,2.09,0,0,0-.28.24.76.76,0,0,0-.09.09,7.59,7.59,0,0,0-.7-.4c-.17-.09-.44-.23-.57-.32.84-1.73,3.56-3.64,5.23-3.64a1.19,1.19,0,0,1,1.28,1C119.84,18.39,117.52,19.38,115.72,20.09Z"/><path class="cls-1" d="M153.67,28.85a10,10,0,0,0-7.48-3.44,9.74,9.74,0,0,0-3.68.73c-3.36,1.37-5.6,4.37-7.77,7.26-.3.39-.59.78-.89,1.16a3.36,3.36,0,0,0-.56,2.56A1.19,1.19,0,0,0,134,38a5.88,5.88,0,0,0,2,.38c4,0,7-4.39,9.48-7.91.34-.5.68-1,1-1.43a1.88,1.88,0,0,1,1.62-.83c1.74,0,3.82,1.82,4.29,3.75.59,2.47-1.55,4.32-3.94,5.05a.47.47,0,0,0-.32.58.48.48,0,0,0,.57.34l.54-.13c1.59-.37,3.23-.75,4.3-2.2C155.3,33.18,155.33,30.74,153.67,28.85Zm-17.95,7.26c.07-1.92,1.53-3.28,2.94-4.6.34-.31.67-.62,1-.93a4.75,4.75,0,0,1,3.22-1.71v-.46h0l.09.47h.29c.19,0,.76,0,.85.13s0,.1,0,.29c-1.08,4-4.4,6-7,6.91C136.59,36.38,135.88,36.41,135.72,36.11Z"/><path class="cls-1" d="M4.06,48.9C-.71,52.7-.19,59.19.33,59.27S2,57.2,5.1,57.1c6.65-.21,11.13-2.53,11.42-7.82A1.4,1.4,0,0,0,15.88,48C13.53,46.38,8.1,45.68,4.06,48.9Zm.83,5.65c-2.28.47-2.47,1.19-2.62.91-.6-1,.09-4.4,3.5-6.51,1.57-1,5.59-1.76,6.57.24a2.6,2.6,0,0,1-.86,3.06C10.38,53.32,7.59,54,4.89,54.55Z"/><path class="cls-1" d="M51.28,26.27l-.75.07a24.37,24.37,0,0,1-4.2,13A22.38,22.38,0,0,0,49.08,39a25.44,25.44,0,0,0,4-13.23A7.79,7.79,0,0,1,51.28,26.27ZM38.59,37.11a32.51,32.51,0,0,0-.43-8.8l.06-.08C42.51,24,46,17.7,42.44,13.33a3.22,3.22,0,0,0-5,.28C34.16,8.74,30,9.92,27.06,10.5a31.79,31.79,0,0,1-5.55.14c-.79,0-.16.59,0,.78,2.21,2.51,1.42,6.61,3.24,8.06,0,0-3.08,1.22-2.23,4.22,1.23,4.37,10.3,2.93,13.25,5.13a4.43,4.43,0,0,0,.86.52c.61,3.93.41,8.58-1.4,11.71C33,45,25.1,46.77,18.09,43.3,10.38,39.49,4,29.14,8.22,16.81,11.24,8,18,3.93,25.3,2.58,37.23.37,50.42,8,50.59,24l.38,0a6.1,6.1,0,0,0,2.14-.75c0-.84-.09-1.69-.19-2.57C51.58,8.69,41.35-2,24.72.33,5.64,3.06-.8,25,8.21,37.71,17.57,51,37.58,50.68,38.59,37.11Zm-2.34-10C33.87,19,28.1,15.32,28.44,15s7.16,3.52,9.18,11.24c.26,1,0,1.45-.37,1.57A.83.83,0,0,1,36.25,27.11Zm8.14,14.51c-6,6.09-15.49,8-25.56,7.05-5.46-.49,13.76,5.78,26.23-5.05a23.31,23.31,0,0,0,2-2c-.47,0-.94.06-1.38.06S44.81,41.66,44.39,41.62Z"/><path class="cls-1" d="M28.74,28.48c-7-.39-9.31,3.86-13.61,3.17a.46.46,0,0,0-.51.64c.77,1.94,3.79,6.79,8.14,6.38-.45,1.92-.16,4.26,5,4.28A11,11,0,0,0,34.47,41,20.13,20.13,0,0,0,37,38S38,29,28.74,28.48Zm6.87,8.63c-.48.21-2-1.39-4.19-1.93-3.36-.82-8.5-.59-8.28-1s4.71-1.27,8.37-.39a11.58,11.58,0,0,1,3.73,1.42C36.37,36,36.13,36.89,35.61,37.11Z"/><path class="cls-1" d="M54.47,31.68a13.28,13.28,0,0,0,1.44-7.61.63.63,0,0,0-1-.41,8.32,8.32,0,0,1-3.79,1.76c-2,.26-11.52,0-13,7.49A6.07,6.07,0,0,0,38.32,37c1.58,2.9,6.61,3.71,11.73,2.65C55,38.6,58.55,33,54.47,31.68Zm-4.38-1.51c-1.27,2.46-4.24,3.44-6.94,4.55-2.54,1.05-3.29,2.39-3.58,1.64-.46-1.14.89-2.31,3.94-3.31C48.25,31.5,50.52,29.32,50.09,30.17Z"/></g></g></svg>